<svg width="45" height="42" viewBox="0 0 45 42" fill="none" xmlns="http://www.w3.org/2000/svg">
<g id="Group 65">
<path id="Vector 12" d="M36.5937 4.86272C27.6826 1.72035 23.8635 9.31441 23.0679 13.5042C24.6591 -2.20765 7.15524 -0.636396 3.17707 4.86272C-0.801097 10.3618 1.5858 15.861 3.17707 20.5746C4.76834 25.2882 11.929 26.8593 15.1116 31.5729C17.6576 35.3437 17.7637 39.4288 17.4985 41C18.2941 38.6432 21.4766 33.4583 27.8417 31.5729C34.2068 29.6875 40.5718 23.9788 42.9587 21.3602C44.55 17.1704 45.5048 8.00509 36.5937 4.86272Z" fill="#FFA4AC" stroke="#412750" stroke-linejoin="round"/>
<g id="Group 64">
<g id="Group 62">
<g id="Group 60">
<path id="Ellipse 12" d="M21.8953 19.6181C21.6885 20.6677 21.8046 21.6559 22.1345 22.4C22.4651 23.1459 22.9859 23.6049 23.5808 23.7221C24.1758 23.8394 24.8318 23.6122 25.4206 23.0476C26.0081 22.4841 26.4905 21.6139 26.6973 20.5643C26.9041 19.5147 26.788 18.5265 26.4581 17.7823C26.1275 17.0365 25.6067 16.5775 25.0118 16.4602C24.4168 16.343 23.7608 16.5701 23.172 17.1348C22.5845 17.6982 22.1021 18.5685 21.8953 19.6181Z" fill="white" stroke="#3A2752"/>
<ellipse id="Ellipse 13" cx="1.97478" cy="3.04114" rx="1.97478" ry="3.04114" transform="matrix(-0.981134 -0.193329 -0.193329 0.981134 25.8728 17.3002)" fill="#2E1A47"/>
</g>
<g id="Group 61">
<path id="Ellipse 12_2" d="M16.5974 18.2182C16.3906 19.2678 16.5067 20.256 16.8366 21.0002C17.1672 21.746 17.6879 22.205 18.2829 22.3223C18.8779 22.4395 19.5338 22.2124 20.1227 21.6477C20.7102 21.0843 21.1926 20.214 21.3994 19.1644C21.6062 18.1148 21.49 17.1266 21.1602 16.3825C20.8296 15.6366 20.3088 15.1776 19.7138 15.0604C19.1189 14.9431 18.4629 15.1703 17.8741 15.7349C17.2866 16.2984 16.8042 17.1686 16.5974 18.2182Z" fill="white" stroke="#3A2752"/>
<ellipse id="Ellipse 13_2" cx="1.97478" cy="3.04114" rx="1.97478" ry="3.04114" transform="matrix(-0.981134 -0.193329 -0.193329 0.981134 20.5749 15.9003)" fill="#2E1A47"/>
</g>
</g>
<g id="Group 63">
<path id="Vector 13" d="M23.878 25.7317C23.7724 26.3658 24.0683 27.6341 26.0976 27.6341" stroke="#2E1A47" stroke-linecap="round"/>
<path id="Vector 14" d="M24.1951 27.317C23.4553 28.1626 21.4683 29.6 19.439 28.5853C17.4098 27.5707 16.6911 26.0488 16.5854 25.4146" stroke="#2E1A47" stroke-linecap="round"/>
<path id="Vector 15" d="M17.8536 24.7805C17.3252 25.2032 16.0146 25.7951 15 24.7805" stroke="#2E1A47" stroke-linecap="round"/>
</g>
</g>
</g>
</svg>
