<svg width="160" height="42" viewBox="0 0 160 42" fill="none" xmlns="http://www.w3.org/2000/svg">
<path d="M0 33.573C0 22.5273 8.95431 13.573 20 13.573H140C151.046 13.573 160 22.5273 160 33.573V41.573H0V33.573Z" fill="#FCC915"/>
<g filter="url(#filter0_d_930_1654)">
<circle cx="35" cy="27.573" r="5" fill="#FA7D38"/>
</g>
<path d="M33.9999 27.073C30.6666 25.2397 24.4999 19.673 26.4999 12.073C28.4999 4.47304 34.3333 2.40639 37 2.07305C41.5 1.51056 48.9 4.07306 48.5 14.0731" stroke="white" stroke-width="4" stroke-linecap="round"/>
<rect x="46" y="13.573" width="5" height="3" fill="#FCC915"/>
<g filter="url(#filter1_d_930_1654)">
<circle cx="124" cy="27.573" r="5" fill="#FA7D38"/>
</g>
<path d="M124 27.0731C120.667 25.2397 114.5 19.6731 116.5 12.0731C118.5 4.47306 124.333 2.40639 127 2.07306C131.5 1.51054 138.9 4.07308 138.5 14.0731" stroke="white" stroke-width="4" stroke-linecap="round"/>
<rect x="136" y="13.573" width="5" height="3" fill="#FCC915"/>
<defs>
<filter id="filter0_d_930_1654" x="28" y="21.573" width="14" height="14" filterUnits="userSpaceOnUse" color-interpolation-filters="sRGB">
<feFlood flood-opacity="0" result="BackgroundImageFix"/>
<feColorMatrix in="SourceAlpha" type="matrix" values="0 0 0 0 0 0 0 0 0 0 0 0 0 0 0 0 0 0 127 0" result="hardAlpha"/>
<feOffset dy="1"/>
<feGaussianBlur stdDeviation="1"/>
<feComposite in2="hardAlpha" operator="out"/>
<feColorMatrix type="matrix" values="0 0 0 0 0 0 0 0 0 0 0 0 0 0 0 0 0 0 0.25 0"/>
<feBlend mode="normal" in2="BackgroundImageFix" result="effect1_dropShadow_930_1654"/>
<feBlend mode="normal" in="SourceGraphic" in2="effect1_dropShadow_930_1654" result="shape"/>
</filter>
<filter id="filter1_d_930_1654" x="117" y="21.573" width="14" height="14" filterUnits="userSpaceOnUse" color-interpolation-filters="sRGB">
<feFlood flood-opacity="0" result="BackgroundImageFix"/>
<feColorMatrix in="SourceAlpha" type="matrix" values="0 0 0 0 0 0 0 0 0 0 0 0 0 0 0 0 0 0 127 0" result="hardAlpha"/>
<feOffset dy="1"/>
<feGaussianBlur stdDeviation="1"/>
<feComposite in2="hardAlpha" operator="out"/>
<feColorMatrix type="matrix" values="0 0 0 0 0 0 0 0 0 0 0 0 0 0 0 0 0 0 0.25 0"/>
<feBlend mode="normal" in2="BackgroundImageFix" result="effect1_dropShadow_930_1654"/>
<feBlend mode="normal" in="SourceGraphic" in2="effect1_dropShadow_930_1654" result="shape"/>
</filter>
</defs>
</svg>
