<svg width="19" height="19" viewBox="0 0 19 19" fill="none" xmlns="http://www.w3.org/2000/svg">
<path d="M2.375 2.375V6.33333H6.33333" stroke="white" stroke-width="2" stroke-linecap="round" stroke-linejoin="round"/>
<path d="M2.41458 10.2917C2.58994 11.8796 3.29389 13.3625 4.41337 14.5023C5.53285 15.6421 7.0029 16.3725 8.58744 16.5764C10.172 16.7802 11.779 16.4456 13.1505 15.6263C14.522 14.807 15.5784 13.5505 16.15 12.0586C16.7215 10.5668 16.7751 8.92612 16.3021 7.40015C15.8291 5.87418 14.857 4.55145 13.5419 3.64438C12.2268 2.73732 10.645 2.29855 9.05051 2.39856C7.45605 2.49857 5.94147 3.13154 4.75 4.19583L2.375 6.33333" stroke="white" stroke-width="2" stroke-linecap="round" stroke-linejoin="round"/>
<path d="M9.5 5.54169V9.50002L12.6667 11.0834" stroke="white" stroke-width="2" stroke-linecap="round" stroke-linejoin="round"/>
</svg>
